<svg width="272" height="272" viewBox="0 0 272 272" fill="none" xmlns="http://www.w3.org/2000/svg">
<g clip-path="url(#clip0)">
<path d="M166.526 261.167C235.962 245.152 279.255 175.937 263.225 106.57C247.194 37.2026 177.91 -6.04815 108.474 9.96651C39.0382 25.9812 -4.25541 95.1968 11.7751 164.564C27.8057 233.931 97.0899 277.182 166.526 261.167Z" fill="black"/>
<path d="M156.684 166.948L94.3404 181.327L113.048 262.281L72.9409 271.531L27.0841 73.0993L137.039 47.7396L144.755 81.1293L74.908 97.2388L86.6556 148.073L149 133.694L156.684 166.948ZM241.793 168.277L209.734 175.671L173.485 39.3337L214.546 29.8629L241.793 168.277ZM214.346 219.251C212.916 213.072 213.706 207.579 216.714 202.771C219.701 197.871 224.333 194.698 230.608 193.25C236.793 191.824 242.302 192.657 247.137 195.753C251.95 198.759 255.071 203.351 256.498 209.529C257.905 215.615 257.105 221.064 254.096 225.872C251.18 230.661 246.584 233.779 240.309 235.226C233.943 236.694 228.352 235.925 223.539 232.921C218.816 229.894 215.751 225.339 214.346 219.251Z" fill="white"/>
</g>
<defs>
<clipPath id="clip0">
<rect width="272" height="272" fill="white"/>
</clipPath>
</defs>
</svg>
