<svg width="141" height="172" viewBox="0 0 141 172" fill="none" xmlns="http://www.w3.org/2000/svg">
<circle cx="70.5" cy="76.5" r="58.5" transform="rotate(-13 70.5 76.5)" fill="black"/>
<path d="M79.1978 90.7414L50.9325 97.267L59.4143 134.006L41.2305 138.204L20.4401 48.1506L70.291 36.6417L73.7894 51.7948L42.1223 59.1057L47.4484 82.1757L75.7137 75.6501L79.1978 90.7414ZM117.784 91.3445L103.249 94.7001L86.8147 32.8269L105.431 28.5288L117.784 91.3445ZM105.34 114.478C104.692 111.674 105.05 109.181 106.414 106.999C107.768 104.775 109.868 103.335 112.713 102.678C115.517 102.031 118.015 102.409 120.207 103.814C122.389 105.178 123.804 107.262 124.451 110.066C125.089 112.828 124.726 115.301 123.362 117.483C122.04 119.656 119.956 121.071 117.111 121.728C114.225 122.394 111.69 122.045 109.508 120.682C107.367 119.308 105.977 117.241 105.34 114.478Z" fill="white"/>
</svg>
