<svg width="88" height="44" viewBox="0 0 88 44" fill="none" xmlns="http://www.w3.org/2000/svg">
<path d="M35.3657 11.584V12.6693H21.315V19.2107H32.579V24.3733H21.315V32H20.2297V11.584H35.3657ZM43.4392 18.5653L41.5619 11.584H53.6766L48.1912 32H47.0472L43.9966 20.648L40.9459 32H39.8019L34.3166 11.584H35.4312L40.3592 29.976L43.4392 18.5653ZM52.2686 12.6693H42.9699L44.5539 18.5653L47.6339 29.976L52.2686 12.6693ZM62.1608 11.584C63.4514 11.584 64.4781 11.7796 65.2408 12.1707C66.1599 12.64 66.8639 13.2853 67.3528 14.1067C67.8612 14.928 68.1154 15.8471 68.1154 16.864C68.1154 17.8222 67.8612 18.712 67.3528 19.5333C66.8443 20.3351 66.1501 20.9707 65.2701 21.44C66.3261 21.8116 67.2159 22.4569 67.9394 23.376C68.663 24.2951 69.0248 25.3316 69.0248 26.4853C69.0248 27.5022 68.7608 28.4409 68.2328 29.3013C67.7243 30.1422 67.0399 30.8071 66.1794 31.296C65.7492 31.5307 65.2701 31.7067 64.7421 31.824C64.2141 31.9413 63.5101 32 62.6301 32H53.5954V11.584H62.1608Z" fill="#010002"/>
<rect x="0.733333" y="0.733333" width="86.5333" height="42.5333" stroke="black" stroke-width="1.46667"/>
</svg>
